# xmcd CD database file
#
# Track frame offsets:
#	150
#	159899
#	273859
#
# Disc length: 4383 seconds
#
# Revision: 0
# Processed by: cddbd v1.5.2PL0 Copyright (c) Steve Scherf et al.
# Submitted via: CDex 1.51
#
DISCID=18111d03
DTITLE=Almer Jansu - Spa of Sound
DYEAR=1900
DGENRE=New Age
TTITLE0=The Shift
TTITLE1=The Flow
TTITLE2=The Change
EXTD=
EXTT0=
EXTT1=
EXTT2=
PLAYORDER=
